<?xml version="1.0" encoding="UTF-8"?>
<svg version="1.1" xmlns="http://www.w3.org/2000/svg" width="240" height="60">
<path d="M0 0 C1.21031891 -0.00014603 2.42063782 -0.00029205 3.66763306 -0.0004425 C6.97298219 0.00013331 10.27826827 0.0051363 13.58360624 0.01213145 C17.04292838 0.01839785 20.50225143 0.01897139 23.96157837 0.02015686 C30.50625736 0.0232605 37.05091957 0.03146083 43.59559119 0.04150635 C51.04903238 0.05269755 58.50247438 0.05818551 65.95592189 0.06320179 C81.28263601 0.07364427 96.60933342 0.09122495 111.93603516 0.11352539 C110.52575875 1.75368877 109.11506214 3.39349233 107.7025013 5.03168869 C106.54710248 6.39336305 105.40942414 7.77032549 104.29232597 9.16359329 C98.19560989 16.70798752 92.39982237 23.65424896 82.32643986 24.85262108 C77.57778899 25.09485785 72.87675905 24.99129929 68.12744141 24.82446289 C66.064398 24.81194188 64.00129769 24.80684501 61.93821716 24.80874634 C56.55194226 24.79544681 51.17174414 24.68869234 45.78717041 24.55914307 C39.24188996 24.41859465 32.69534494 24.38667266 26.1488409 24.34124184 C21.05724536 24.30428275 15.96775851 24.25093516 10.87709045 24.14486694 C9.47132248 24.12068947 9.47132248 24.12068947 8.03715515 24.09602356 C6.30574502 24.06565171 4.57444436 24.02737391 2.84344482 23.97895813 C-9.48044488 23.79004999 -17.344515 27.69598631 -26.18310547 36.13745117 C-30.08353138 39.96757679 -33.91724902 43.85842238 -37.73193359 47.77368164 C-41.6617077 51.7796588 -45.80098088 55.46911062 -50.06396484 59.11352539 C-50.39396484 59.44352539 -50.72396484 59.77352539 -51.06396484 60.11352539 C-53.65755806 60.20204068 -56.22436176 60.22878484 -58.81787109 60.21118164 C-59.59331772 60.20976669 -60.36876434 60.20835175 -61.16770935 60.20689392 C-63.65399979 60.20127884 -66.14020145 60.18872385 -68.62646484 60.17602539 C-70.30810417 60.17101233 -71.98974491 60.16644909 -73.67138672 60.16235352 C-77.8022805 60.15130452 -81.9331076 60.13402984 -86.06396484 60.11352539 C-81.28341947 54.37831231 -76.18578253 49.04392853 -70.93115234 43.74243164 C-70.05806427 42.86127182 -69.1849762 41.980112 -68.28543091 41.07225037 C-66.44291454 39.21595965 -64.59888062 37.36117414 -62.75341797 35.5078125 C-60.8833438 33.6262207 -59.01774294 31.74017193 -57.15673828 29.84960938 C-54.44562677 27.09552151 -51.72122379 24.35520823 -48.99365234 21.61743164 C-48.17758514 20.78385635 -47.36151794 19.95028107 -46.52072144 19.09144592 C-32.41387703 5.03615241 -19.55879253 -0.06179631 0 0 Z " fill="#EE0000" transform="translate(86.06396484375,-0.113525390625)"/>
<path d="M0 0 C0.8979126 -0.00014603 1.7958252 -0.00029205 2.72094727 -0.0004425 C5.68605981 0.00025363 8.65110938 0.0080321 11.61621094 0.01586914 C13.67315639 0.01773438 15.73010229 0.01915778 17.78704834 0.02015686 C23.19902779 0.02397369 28.61098038 0.03379688 34.02294922 0.04486084 C39.54622026 0.05509287 45.06949565 0.05965833 50.59277344 0.06469727 C61.42872274 0.07541988 72.2646521 0.09248632 83.10058594 0.11352539 C82.69884124 0.57332385 82.29709654 1.03312231 81.88317776 1.50685406 C79.21050066 4.59021744 76.65045146 7.62915217 74.39575195 11.03662109 C70.12890969 16.74210064 65.81492148 21.24405177 58.68621826 22.91278076 C49.57636459 23.96960052 40.43810469 23.69567289 31.28881836 23.37390137 C25.35367891 23.18172878 19.41521862 23.13052966 13.47760201 23.06591225 C11.41893109 23.03216624 9.36350209 22.96563683 7.30589294 22.8926239 C0.04138628 22.48751668 0.04138628 22.48751668 -6.61572266 24.88598633 C-8.57200323 26.79416507 -10.13675977 28.62108992 -11.71582031 30.83618164 C-14.75921199 33.97339657 -17.28755001 34.56655485 -21.62484741 34.77572632 C-25.36843209 34.81251508 -29.09666907 34.69766292 -32.83691406 34.55102539 C-34.39478681 34.51587322 -35.95273573 34.48394105 -37.51074219 34.45532227 C-41.30886141 34.37858138 -45.10329354 34.25802759 -48.89941406 34.11352539 C-44.04979408 28.25969117 -38.83732531 22.80024495 -33.48681641 17.40576172 C-32.5109553 16.41833364 -31.53958969 15.42644265 -30.57275391 14.43017578 C-21.07262591 4.64231125 -13.8537099 -0.05888247 0 0 Z " fill="#EE0000" transform="translate(88.8994140625,25.886474609375)"/>
<path d="M0 0 C2.16092259 0.58099164 4.31660503 1.18571469 6.44921875 1.86328125 C-3.40795132 13.46245121 -13.56273466 24.76976294 -24.05078125 35.80078125 C-24.63940823 36.42054714 -25.2280352 37.04031303 -25.83449936 37.67885971 C-51.36161802 64.39984988 -51.36161802 64.39984988 -67.22763062 65.55317688 C-75.19278494 65.61769621 -82.97285396 64.27091378 -90.55078125 61.86328125 C-80.69361118 50.26411129 -70.53882784 38.95679956 -60.05078125 27.92578125 C-59.46215427 27.30601536 -58.8735273 26.68624947 -58.26706314 26.04770279 C-40.79658178 7.76014881 -26.84396731 -5.56950577 0 0 Z " fill="#EE0000" transform="translate(233.55078125,-1.86328125)"/>
<path d="M0 0 C3.3 0 6.6 0 10 0 C10 0.99 10 1.98 10 3 C10.66 3 11.32 3 12 3 C12 2.01 12 1.02 12 0 C12.99 0 13.98 0 15 0 C15 2.64 15 5.28 15 8 C12.36 8 9.72 8 7 8 C7 6.02 7 4.04 7 2 C6.01 2 5.02 2 4 2 C4 3.98 4 5.96 4 8 C3.34 8 2.68 8 2 8 C2 6.02 2 4.04 2 2 C1.34 2 0.68 2 0 2 C0 1.34 0 0.68 0 0 Z " fill="#EE0000" transform="translate(195,52)"/>
</svg>
